<?xml version="1.0" encoding="iso-8859-1"?>
<!-- Uploaded to: SVG Repo, www.svgrepo.com, Generator: SVG Repo Mixer Tools -->
<!DOCTYPE svg PUBLIC "-//W3C//DTD SVG 1.1//EN" "http://www.w3.org/Graphics/SVG/1.1/DTD/svg11.dtd">
<svg fill="#000000" height="800px" width="800px" version="1.1" id="Capa_1" xmlns="http://www.w3.org/2000/svg" xmlns:xlink="http://www.w3.org/1999/xlink" 
	 viewBox="0 0 44 44" xml:space="preserve">
<g>
	<path d="M18,16c0-2.757-2.243-5-5-5c-0.379,0-0.746,0.051-1.101,0.131C13.394,11.53,14.5,12.88,14.5,14.5
		c0,1.933-1.567,3.5-3.5,3.5c-1.256,0-2.348-0.667-2.966-1.66C8.213,18.936,10.36,21,13,21C15.757,21,18,18.757,18,16z"/>
	<path d="M22,0C9.869,0,0,9.869,0,22s9.869,22,22,22s22-9.869,22-22S34.131,0,22,0z M6,16c0-3.86,3.141-7,7-7s7,3.14,7,7
		s-3.141,7-7,7S6,19.86,6,16z M22,40c-6.617,0-12-5.383-12-12c0-0.552,0.447-1,1-1h22c0.553,0,1,0.448,1,1
		C34,34.617,28.617,40,22,40z M31,23c-3.859,0-7-3.14-7-7s3.141-7,7-7s7,3.14,7,7S34.859,23,31,23z"/>
	<path d="M33,18c-1.933,0-3.5-1.567-3.5-3.5c0-1.62,1.106-2.97,2.601-3.369C31.746,11.051,31.379,11,31,11c-2.757,0-5,2.243-5,5
		s2.243,5,5,5c2.64,0,4.787-2.064,4.966-4.66C35.348,17.333,34.256,18,33,18z"/>
</g>
</svg>