<?xml version="1.0" encoding="UTF-8"?>
<!DOCTYPE svg PUBLIC "-//W3C//DTD SVG 1.1//EN" "http://www.w3.org/Graphics/SVG/1.1/DTD/svg11.dtd">
<svg xmlns="http://www.w3.org/2000/svg" version="1.1" width="117px" height="94px" style="shape-rendering:geometricPrecision; text-rendering:geometricPrecision; image-rendering:optimizeQuality; fill-rule:evenodd; clip-rule:evenodd" xmlns:xlink="http://www.w3.org/1999/xlink">
<g><path style="opacity:1" fill="#050607" d="M 56.5,4.5 C 69.6961,5.63679 82.0295,9.47012 93.5,16C 101.415,24.3387 107.415,33.8387 111.5,44.5C 110.562,48.3142 109.229,51.9809 107.5,55.5C 105.999,56.7515 104.332,57.7515 102.5,58.5C 101.495,62.0619 99.8279,65.2286 97.5,68C 91.8709,72.6559 85.3709,75.1559 78,75.5C 76.0164,75.2587 74.1831,74.5921 72.5,73.5C 72.2385,79.1612 71.9051,84.8278 71.5,90.5C 64.9704,84.1368 58.9704,77.3034 53.5,70C 48.5,69.6667 43.5,69.3333 38.5,69C 36.5,66.6667 34.5,64.3333 32.5,62C 29.4822,61.9991 26.4822,62.4991 23.5,63.5C 19.0442,61.4381 14.7109,59.1048 10.5,56.5C 5.80342,47.5882 4.63676,38.2549 7,28.5C 12.5,24.3333 17.3333,19.5 21.5,14C 33.1714,10.3743 44.8381,7.20764 56.5,4.5 Z M 57.5,7.5 C 63.7783,8.82414 70.1117,9.82414 76.5,10.5C 74.8308,17.1727 73.1641,23.8394 71.5,30.5C 64.2241,28.1122 57.3907,24.7789 51,20.5C 53.1049,16.2902 55.2716,11.9568 57.5,7.5 Z M 50.5,8.5 C 51.8734,8.34332 53.2068,8.50999 54.5,9C 51.9204,12.1584 49.5871,15.4918 47.5,19C 41.6621,19.8667 35.8287,20.7001 30,21.5C 28.0738,19.8686 26.2404,18.0353 24.5,16C 33.1879,13.1655 41.8545,10.6655 50.5,8.5 Z M 81.5,14.5 C 84.3153,14.2037 86.9819,15.2037 89.5,17.5C 88.5637,18.9744 87.2303,19.9744 85.5,20.5C 84.1433,18.4346 82.81,16.4346 81.5,14.5 Z M 78.5,14.5 C 80.1936,16.7156 81.5269,19.2156 82.5,22C 80.6496,24.6083 78.3162,26.775 75.5,28.5C 75.1667,28 74.8333,27.5 74.5,27C 75.9404,22.8464 77.2737,18.6797 78.5,14.5 Z M 21.5,17.5 C 22.9616,18.4577 24.2949,19.6244 25.5,21C 22.8738,21.995 20.2071,22.3283 17.5,22C 19.0414,20.6288 20.3747,19.1288 21.5,17.5 Z M 91.5,19.5 C 96.489,23.1676 100.489,27.8343 103.5,33.5C 99.9412,36.0843 96.1079,37.0843 92,36.5C 90.4405,32.3806 88.6072,28.3806 86.5,24.5C 87.8818,22.4514 89.5484,20.7847 91.5,19.5 Z M 38.5,22.5 C 40.8568,22.3367 43.1902,22.5034 45.5,23C 43.5209,26.4717 41.1875,29.6383 38.5,32.5C 35.9778,29.8122 33.6445,26.9789 31.5,24C 34.0356,23.8138 36.369,23.3138 38.5,22.5 Z M 48.5,22.5 C 55.2268,26.2814 62.0602,29.948 69,33.5C 68.8623,38.2158 67.6956,42.7158 65.5,47C 61.6498,48.5047 57.8165,50.0047 54,51.5C 49.6196,45.9081 45.1196,40.4081 40.5,35C 43.3903,30.9498 46.057,26.7832 48.5,22.5 Z M 18.5,24.5 C 21.8499,24.335 25.1832,24.5017 28.5,25C 31.2855,28.074 33.9522,31.2407 36.5,34.5C 32.3148,38.5151 27.8148,42.1818 23,45.5C 18.8333,40 14.6667,34.5 10.5,29C 12.6413,26.3667 15.3079,24.8667 18.5,24.5 Z M 83.5,25.5 C 86.5776,29.6603 88.5776,34.327 89.5,39.5C 82.904,41.6983 76.2373,43.6983 69.5,45.5C 70.3543,41.4174 71.521,37.4174 73,33.5C 76.6584,30.9343 80.1584,28.2676 83.5,25.5 Z M 9.5,32.5 C 13.1123,37.1236 16.7789,41.7903 20.5,46.5C 18.1401,48.8532 15.4735,50.8532 12.5,52.5C 8.73211,46.2589 7.73211,39.5923 9.5,32.5 Z M 103.5,36.5 C 104.5,36.5 105.5,36.5 106.5,36.5C 107.756,40.087 108.256,43.7537 108,47.5C 107.069,49.4595 106.236,51.4595 105.5,53.5C 104.562,54.5529 103.395,55.2196 102,55.5C 98.4508,50.6992 95.9508,45.3659 94.5,39.5C 97.7846,39.0719 100.785,38.0719 103.5,36.5 Z M 37.5,37.5 C 42.4398,41.4457 46.7732,46.1124 50.5,51.5C 50.2907,52.086 49.9574,52.586 49.5,53C 44.1293,54.7346 38.796,56.568 33.5,58.5C 30.2714,55.0567 27.2714,51.39 24.5,47.5C 28.876,44.1117 33.2093,40.7783 37.5,37.5 Z M 85.5,42.5 C 86.5,42.5 87.5,42.5 88.5,42.5C 86.8536,48.2668 84.5203,53.7668 81.5,59C 75.8737,60.1609 70.207,60.9942 64.5,61.5C 65.3321,57.1704 66.6654,53.0037 68.5,49C 74.4613,47.2957 80.128,45.1291 85.5,42.5 Z M 91.5,42.5 C 94.1048,46.7795 96.4381,51.2795 98.5,56C 94.1886,57.6128 89.8552,58.1128 85.5,57.5C 87.7897,52.5914 89.7897,47.5914 91.5,42.5 Z M 20.5,49.5 C 24.4131,51.4128 27.4131,54.4128 29.5,58.5C 27.4729,60.339 25.1396,60.839 22.5,60C 19.3388,58.5869 16.3388,56.9203 13.5,55C 16.02,53.3029 18.3533,51.4695 20.5,49.5 Z M 62.5,50.5 C 63.4972,50.4701 64.1639,50.9701 64.5,52C 63.4642,54.7741 62.6309,57.6074 62,60.5C 59.0973,58.4537 57.264,55.787 56.5,52.5C 58.7857,52.405 60.7857,51.7384 62.5,50.5 Z M 51.5,54.5 C 52.2389,54.369 52.9056,54.5357 53.5,55C 55.5977,57.854 57.931,60.5206 60.5,63C 54.3973,66.8872 47.7306,68.2206 40.5,67C 38.6487,65.3163 36.982,63.4829 35.5,61.5C 40.6627,58.779 45.9961,56.4457 51.5,54.5 Z M 93.5,59.5 C 95.1667,59.5 96.8333,59.5 98.5,59.5C 98.4348,61.6957 97.7681,63.6957 96.5,65.5C 91.7237,68.8068 86.557,71.1401 81,72.5C 80.5,72.1667 80,71.8333 79.5,71.5C 80.8333,68.5 82.1667,65.5 83.5,62.5C 86.8906,61.2831 90.2239,60.2831 93.5,59.5 Z M 74.5,62.5 C 76.5273,62.3379 78.5273,62.5045 80.5,63C 79.1446,66.2118 77.6446,69.3785 76,72.5C 71.6867,71.1938 68.1867,68.6938 65.5,65C 68.5787,64.0272 71.5787,63.1939 74.5,62.5 Z M 60.5,65.5 C 63.3943,66.8823 65.8943,68.8823 68,71.5C 68.9046,75.8188 69.2379,80.1521 69,84.5C 64.454,79.6226 60.2873,74.456 56.5,69C 57.7305,67.5952 59.0639,66.4286 60.5,65.5 Z"/></g>
</svg>
